<svg xmlns="http://www.w3.org/2000/svg" viewBox="0 0 128 128">
  <rect width="128" height="128" rx="18" fill="#faf6ec"/>
  <rect width="128" height="128" rx="18" fill="none" stroke="#ddd3ba" stroke-width="2"/>
  <line x1="24" y1="44" x2="104" y2="44" stroke="#ddd3ba" stroke-width="2"/>
  <line x1="24" y1="66" x2="104" y2="66" stroke="#ddd3ba" stroke-width="2"/>
  <line x1="24" y1="88" x2="104" y2="88" stroke="#ddd3ba" stroke-width="2"/>
  <rect x="24" y="30" width="46" height="9" fill="#f2dc9b"/>
  <text x="25" y="39" font-family="Georgia, serif" font-size="13" fill="#33302a">today</text>
  <g transform="rotate(-2 32 57)">
    <rect x="26" y="51" width="12" height="12" rx="2" fill="none" stroke="#8b8170" stroke-width="2.4"/>
    <path d="M27.5 52.5 L36.5 61.5 M36.5 52.5 L27.5 61.5" stroke="#b5533c" stroke-width="2.6" stroke-linecap="round"/>
  </g>
  <line x1="46" y1="59" x2="98" y2="59" stroke="#8b8170" stroke-width="2.4" stroke-linecap="round"/>
  <g transform="rotate(1.5 32 79)">
    <rect x="26" y="73" width="12" height="12" rx="2" fill="none" stroke="#8b8170" stroke-width="2.4"/>
  </g>
  <line x1="46" y1="81" x2="86" y2="81" stroke="#33302a" stroke-width="2.4" stroke-linecap="round"/>
  <path d="M46 103 C 58 99, 74 106, 96 101" stroke="#b5533c" stroke-width="2.6" fill="none" stroke-linecap="round"/>
</svg>
